#N canvas 773 93 800 807 10;
#N canvas 120 255 490 399 readlevel 0;
#X obj 80 246 textfile;
#X msg 201 156 bang;
#X obj 43 27 inlet;
#X obj 80 333 outlet;
#X obj 122 28 bng 15 250 50 0 empty empty empty 17 7 0 10 -262144 -1
-1;
#X floatatom 80 293 5 0 0 0 - - -, f 5;
#X msg 13 133 read testfile;
#X msg 123 135 rewind;
#X obj 123 91 delay 100;
#X obj 201 118 delay 100;
#X msg 285 191 bang;
#X obj 285 153 delay 100;
#X connect 0 0 5 0;
#X connect 0 1 4 0;
#X connect 1 0 0 0;
#X connect 2 0 6 0;
#X connect 2 0 8 0;
#X connect 4 0 6 0;
#X connect 4 0 8 0;
#X connect 5 0 3 0;
#X connect 6 0 0 0;
#X connect 7 0 0 0;
#X connect 8 0 7 0;
#X connect 8 0 9 0;
#X connect 9 0 1 0;
#X connect 9 0 11 0;
#X connect 10 0 0 0;
#X connect 11 0 10 0;
#X restore 469 158 pd readlevel;
#X obj 265 250 *~;
#X obj 262 350 dac~;
#X text 129 115 main track;
#X text 261 83 noise1 input;
#X text 284 131 noise1 level;
#X obj 445 245 *~;
#X obj 493 205 / 127;
#X text 443 85 noise2 input;
#X text 470 135 noise2 level;
#X obj 579 61 vsl 15 128 0 127 0 0 empty empty empty 0 -9 0 10 -262144
-1 -1 0 1;
#X obj 199 56 bng 15 250 50 0 empty empty empty 17 7 0 10 -262144 -1
-1;
#N canvas 345 447 450 382 readsound 0;
#X obj 94 219 readsf~;
#X msg 187 118 1;
#X msg 187 159 0;
#X obj 95 281 outlet~;
#X obj 55 34 inlet;
#X obj 187 77 delay 500;
#X obj 159 26 bng 15 250 50 0 empty empty empty 17 7 0 10 -262144 -1
-1;
#X text 157 211 The link to the bang plays the track in loop;
#X msg 34 126 open track.wav;
#X connect 0 0 3 0;
#X connect 0 1 6 0;
#X connect 1 0 0 0;
#X connect 2 0 0 0;
#X connect 4 0 8 0;
#X connect 4 0 5 0;
#X connect 5 0 1 0;
#X connect 6 0 8 0;
#X connect 6 0 5 0;
#X connect 8 0 0 0;
#X restore 123 136 pd readsound;
#N canvas 332 327 450 382 readsound 0;
#X obj 94 219 readsf~;
#X msg 187 128 1;
#X msg 190 167 0;
#X obj 95 281 outlet~;
#X obj 94 46 inlet;
#X obj 187 77 delay 500;
#X msg 34 126 open noise1.wav;
#X obj 179 37 bng 15 250 50 0 empty empty empty 17 7 0 10 -262144 -1
-1;
#X connect 0 0 3 0;
#X connect 0 1 7 0;
#X connect 1 0 0 0;
#X connect 2 0 0 0;
#X connect 4 0 6 0;
#X connect 4 0 5 0;
#X connect 5 0 1 0;
#X connect 6 0 0 0;
#X connect 7 0 6 0;
#X connect 7 0 5 0;
#X restore 265 105 pd readsound;
#N canvas 329 340 450 382 readsound 0;
#X obj 94 219 readsf~;
#X msg 187 128 1;
#X msg 190 167 0;
#X obj 95 281 outlet~;
#X obj 94 46 inlet;
#X obj 187 77 delay 500;
#X msg 34 126 open noise2.wav;
#X obj 171 35 bng 15 250 50 0 empty empty empty 17 7 0 10 -262144 -1
-1;
#X connect 0 0 3 0;
#X connect 0 1 7 0;
#X connect 1 0 0 0;
#X connect 2 0 0 0;
#X connect 4 0 6 0;
#X connect 4 0 5 0;
#X connect 5 0 1 0;
#X connect 6 0 0 0;
#X connect 7 0 6 0;
#X connect 7 0 5 0;
#X restore 454 107 pd readsound;
#X obj 384 64 vsl 15 128 0 127 0 0 empty empty empty 0 -9 0 10 -262144
-1 -1 0 1;
#X obj 318 224 / 127;
#N canvas 123 242 490 399 readlevel 0;
#X obj 80 246 textfile;
#X msg 201 156 bang;
#X obj 43 27 inlet;
#X obj 80 333 outlet;
#X obj 122 28 bng 15 250 50 0 empty empty empty 17 7 0 10 -262144 -1
-1;
#X floatatom 80 293 5 0 0 0 - - -, f 5;
#X msg 13 133 read testfile;
#X msg 123 135 rewind;
#X obj 123 91 delay 100;
#X obj 201 118 delay 100;
#X msg 285 191 bang;
#X obj 285 153 delay 100;
#X connect 0 0 5 0;
#X connect 0 1 4 0;
#X connect 1 0 0 0;
#X connect 2 0 6 0;
#X connect 2 0 8 0;
#X connect 4 0 6 0;
#X connect 4 0 8 0;
#X connect 5 0 3 0;
#X connect 6 0 0 0;
#X connect 7 0 0 0;
#X connect 8 0 7 0;
#X connect 8 0 9 0;
#X connect 9 0 1 0;
#X connect 9 0 11 0;
#X connect 10 0 0 0;
#X connect 11 0 10 0;
#X restore 291 150 pd readlevel;
#X obj 199 25 loadbang;
#X msg 47 89 \; pd dsp 1;
#X obj 47 57 delay 100;
#X connect 1 0 2 0;
#X connect 1 0 2 1;
#X connect 6 0 2 0;
#X connect 6 0 2 1;
#X connect 7 0 6 1;
#X connect 10 0 7 0;
#X connect 11 0 12 0;
#X connect 11 0 13 0;
#X connect 11 0 14 0;
#X connect 12 0 2 0;
#X connect 12 0 2 1;
#X connect 13 0 1 0;
#X connect 14 0 6 0;
#X connect 15 0 16 0;
#X connect 16 0 1 1;
#X connect 18 0 11 0;
#X connect 18 0 20 0;
#X connect 20 0 19 0;
