#N canvas 626 93 800 807 10;
#X obj 224 282 *~;
#X obj 138 393 dac~;
#X text 88 144 main track;
#X obj 423 280 *~;
#N canvas 345 447 450 382 readsound 0;
#X obj 94 219 readsf~;
#X msg 187 118 1;
#X msg 187 159 0;
#X obj 95 281 outlet~;
#X obj 55 34 inlet;
#X obj 187 77 delay 500;
#X obj 159 26 bng 15 250 50 0 empty empty empty 17 7 0 10 -262144 -1
-1;
#X text 157 211 The link to the bang plays the track in loop;
#X msg 34 126 open track.wav;
#X connect 0 0 3 0;
#X connect 0 1 6 0;
#X connect 1 0 0 0;
#X connect 2 0 0 0;
#X connect 4 0 8 0;
#X connect 4 0 5 0;
#X connect 5 0 1 0;
#X connect 6 0 8 0;
#X connect 6 0 5 0;
#X connect 8 0 0 0;
#X restore 82 165 pd readsound;
#N canvas 329 340 450 382 readsound 0;
#X obj 94 219 readsf~;
#X msg 187 128 1;
#X msg 190 167 0;
#X obj 95 281 outlet~;
#X obj 94 46 inlet;
#X obj 187 77 delay 500;
#X msg 34 126 open noise1.wav;
#X obj 179 37 bng 15 250 50 0 empty empty empty 17 7 0 10 -262144 -1
-1;
#X connect 0 0 3 0;
#X connect 0 1 7 0;
#X connect 1 0 0 0;
#X connect 2 0 0 0;
#X connect 4 0 6 0;
#X connect 4 0 5 0;
#X connect 5 0 1 0;
#X connect 6 0 0 0;
#X connect 7 0 6 0;
#X connect 7 0 5 0;
#X restore 224 134 pd readsound;
#N canvas 329 340 450 382 readsound 0;
#X obj 94 219 readsf~;
#X msg 187 128 1;
#X msg 190 167 0;
#X obj 95 281 outlet~;
#X obj 94 46 inlet;
#X obj 187 77 delay 500;
#X msg 34 126 open noise2.wav;
#X obj 171 35 bng 15 250 50 0 empty empty empty 17 7 0 10 -262144 -1
-1;
#X connect 0 0 3 0;
#X connect 0 1 7 0;
#X connect 1 0 0 0;
#X connect 2 0 0 0;
#X connect 4 0 6 0;
#X connect 4 0 5 0;
#X connect 5 0 1 0;
#X connect 6 0 0 0;
#X connect 7 0 6 0;
#X connect 7 0 5 0;
#X restore 422 137 pd readsound;
#X obj 199 25 loadbang;
#X msg 47 89 \; pd dsp 1;
#X obj 47 57 delay 100;
#X obj 356 66 bng 15 250 50 0 empty empty empty 17 7 0 10 -262144 -1
-1;
#X floatatom 261 222 5 0 0 0 - - -, f 5;
#X obj 261 198 readfile 0;
#X floatatom 461 225 5 0 0 0 - - -, f 5;
#X obj 461 201 readfile 1;
#X obj 261 244 / 2047;
#X obj 461 249 / 2047;
#X obj 327 16 delay 100;
#X text 539 202 slider input;
#X text 339 199 slider input;
#X text 441 113 noise2;
#X text 477 159 volume;
#X text 517 137 input;
#X text 277 157 volume;
#X text 318 134 input;
#X text 242 112 noise1;
#X obj 192 75 bng 15 250 50 0 empty empty empty 17 7 0 10 -262144 -1
-1;
#X obj 422 159 *~ 0.4;
#X text 99 331 main volume;
#X obj 151 339 *~ 0.07;
#X obj 224 156 *~ 1.7;
#X connect 0 0 29 0;
#X connect 3 0 29 0;
#X connect 4 0 29 0;
#X connect 5 0 30 0;
#X connect 6 0 27 0;
#X connect 7 0 9 0;
#X connect 7 0 26 0;
#X connect 9 0 8 0;
#X connect 10 0 12 0;
#X connect 10 0 14 0;
#X connect 11 0 15 0;
#X connect 12 0 11 0;
#X connect 12 1 17 0;
#X connect 13 0 16 0;
#X connect 14 0 13 0;
#X connect 15 0 0 1;
#X connect 16 0 3 1;
#X connect 17 0 10 0;
#X connect 26 0 4 0;
#X connect 26 0 5 0;
#X connect 26 0 6 0;
#X connect 26 0 10 0;
#X connect 27 0 3 0;
#X connect 29 0 1 0;
#X connect 29 0 1 1;
#X connect 30 0 0 0;
